<mxfile host="app.diagrams.net" modified="2023-09-18T06:08:10.570Z" agent="Mozilla/5.0 (Windows NT 10.0; Win64; x64) AppleWebKit/537.36 (KHTML, like Gecko) Chrome/116.0.0.0 Safari/537.36" version="21.6.1" etag="LDOad8NZvddY9ciaNi2X" type="github">
  <diagram name="Halaman-1" id="pKOk0u4qH1DM_huSJUp6">
    <mxGraphModel>
      <root>
        <mxCell id="0" />
        <mxCell id="1" parent="0" />
      </root>
    </mxGraphModel>
  </diagram>
</mxfile>
